<?xml version="1.0" encoding="UTF-8"?>
<!DOCTYPE svg PUBLIC "-//W3C//DTD SVG 1.1//EN" "http://www.w3.org/Graphics/SVG/1.1/DTD/svg11.dtd">
<!-- Creator: CorelDRAW 2017 -->
<svg xmlns="http://www.w3.org/2000/svg" xml:space="preserve" width="40px" height="40px" version="1.1" style="shape-rendering:geometricPrecision; text-rendering:geometricPrecision; image-rendering:optimizeQuality; fill-rule:evenodd; clip-rule:evenodd"
viewBox="0 0 40 40"
 xmlns:xlink="http://www.w3.org/1999/xlink">
 <defs>
  <style type="text/css">
   <![CDATA[
    .fil0 {fill:none}
    .fil1 {fill:#0098DA}
   ]]>
  </style>
 </defs>
 <g id="Camada_x0020_1">
  <metadata id="CorelCorpID_0Corel-Layer"/>
  <rect class="fil0" width="40" height="40"/>
  <path class="fil1" d="M11.82 5.78l18.85 12.1 0 0c1.81,1.15 1.81,3.05 0,4.21l-0.01 0.01 0.04 0.02 -18.88 12.06c-1.81,1.16 -3.82,0.39 -3.83,-1.76l-0.02 -24.84c0,-2.15 2.02,-2.92 3.83,-1.76l0.02 0.01 0 -0.05zm4.49 21.7l-0.83 0.53 0.29 0.45 0.76 -0.49c0.05,-0.04 0.1,-0.05 0.15,-0.05 0.04,0.01 0.07,0.03 0.1,0.08 0.03,0.04 0.04,0.08 0.03,0.12 -0.02,0.05 -0.05,0.08 -0.11,0.12l-0.75 0.49 0.33 0.51 0.85 -0.55c0.06,-0.03 0.11,-0.05 0.15,-0.04 0.05,0.01 0.09,0.03 0.12,0.08 0.03,0.04 0.03,0.08 0.02,0.13 -0.01,0.05 -0.05,0.09 -0.1,0.12l-1 0.64c-0.07,0.06 -0.14,0.07 -0.2,0.06 -0.06,-0.01 -0.11,-0.06 -0.16,-0.14l-0.88 -1.35c-0.03,-0.05 -0.05,-0.1 -0.06,-0.14 0,-0.05 0.01,-0.09 0.03,-0.12 0.02,-0.04 0.06,-0.07 0.11,-0.11l0.96 -0.62c0.06,-0.04 0.11,-0.05 0.16,-0.04 0.04,0 0.08,0.03 0.11,0.07 0.02,0.04 0.03,0.09 0.02,0.13 -0.01,0.04 -0.05,0.08 -0.1,0.12zm1.18 0.9l0.02 -0.85 -0.68 -0.31c-0.06,-0.03 -0.11,-0.05 -0.15,-0.08 -0.04,-0.03 -0.07,-0.06 -0.1,-0.09 -0.02,-0.04 -0.02,-0.08 -0.01,-0.12 0.01,-0.05 0.04,-0.09 0.09,-0.12 0.05,-0.03 0.1,-0.04 0.14,-0.03 0.05,0.01 0.13,0.04 0.23,0.09l0.55 0.27 0.01 -0.63c0,-0.05 0,-0.1 0,-0.13 0,-0.04 0,-0.07 0,-0.1 0.01,-0.03 0.02,-0.05 0.03,-0.07 0.02,-0.02 0.03,-0.04 0.06,-0.06 0.05,-0.03 0.09,-0.04 0.14,-0.03 0.05,0.01 0.08,0.03 0.11,0.07 0.03,0.05 0.05,0.15 0.05,0.28l-0.02 0.77 0.77 0.34c0.06,0.03 0.12,0.05 0.15,0.08 0.04,0.02 0.07,0.05 0.09,0.08 0.02,0.03 0.03,0.06 0.03,0.09 0,0.03 -0.01,0.06 -0.02,0.09 -0.02,0.03 -0.04,0.06 -0.08,0.08 -0.03,0.02 -0.06,0.04 -0.1,0.04 -0.03,0 -0.06,-0.01 -0.09,-0.02 -0.03,-0.01 -0.08,-0.04 -0.16,-0.07l-0.64 -0.29 -0.01 0.73c0,0.05 0,0.09 0,0.12 0,0.02 0,0.05 -0.01,0.07 0,0.03 -0.01,0.05 -0.03,0.07 -0.01,0.03 -0.03,0.05 -0.06,0.07 -0.05,0.03 -0.09,0.03 -0.14,0.03 -0.05,-0.01 -0.09,-0.04 -0.12,-0.09 -0.04,-0.06 -0.06,-0.16 -0.05,-0.28zm2.06 -1.83l-0.34 0.21 0.33 0.51c0.05,0.08 0.07,0.14 0.06,0.2 -0.01,0.06 -0.05,0.11 -0.1,0.14 -0.05,0.04 -0.11,0.05 -0.17,0.03 -0.05,-0.01 -0.11,-0.05 -0.15,-0.13l-0.9 -1.39c-0.05,-0.08 -0.07,-0.15 -0.06,-0.2 0.02,-0.06 0.07,-0.12 0.15,-0.17l0.46 -0.3c0.14,-0.09 0.26,-0.15 0.35,-0.18 0.08,-0.02 0.17,-0.03 0.25,-0.02 0.09,0.02 0.16,0.05 0.24,0.1 0.07,0.05 0.13,0.12 0.19,0.2 0.12,0.19 0.15,0.36 0.1,0.53 -0.05,0.17 -0.19,0.32 -0.41,0.47zm-0.63 -0.77l-0.24 0.16 0.35 0.55 0.25 -0.16c0.09,-0.05 0.15,-0.11 0.2,-0.17 0.04,-0.05 0.07,-0.11 0.07,-0.17 0.01,-0.06 -0.01,-0.12 -0.06,-0.19 -0.05,-0.08 -0.11,-0.13 -0.19,-0.15 -0.09,-0.02 -0.21,0.03 -0.38,0.13zm2.26 -1.45l-0.82 0.53 0.29 0.45 0.75 -0.49c0.06,-0.04 0.11,-0.05 0.15,-0.05 0.05,0.01 0.08,0.03 0.11,0.07 0.02,0.05 0.03,0.09 0.02,0.13 -0.01,0.04 -0.04,0.08 -0.1,0.12l-0.76 0.49 0.34 0.51 0.85 -0.55c0.05,-0.03 0.11,-0.05 0.15,-0.04 0.05,0.01 0.09,0.03 0.11,0.08 0.03,0.04 0.04,0.08 0.03,0.13 -0.01,0.04 -0.05,0.09 -0.11,0.12l-0.99 0.64c-0.08,0.05 -0.15,0.07 -0.2,0.06 -0.06,-0.01 -0.12,-0.06 -0.17,-0.14l-0.87 -1.35c-0.04,-0.05 -0.05,-0.1 -0.06,-0.14 -0.01,-0.05 0,-0.09 0.03,-0.12 0.02,-0.04 0.06,-0.07 0.11,-0.11l0.96 -0.62c0.06,-0.04 0.11,-0.05 0.16,-0.05 0.04,0.01 0.08,0.04 0.1,0.08 0.03,0.04 0.04,0.08 0.03,0.13 -0.01,0.04 -0.05,0.08 -0.11,0.12zm1.47 0.12l-0.13 0.08 0.37 0.58c0.05,0.07 0.07,0.14 0.06,0.2 -0.01,0.06 -0.04,0.1 -0.09,0.14 -0.06,0.04 -0.12,0.04 -0.18,0.03 -0.05,-0.02 -0.1,-0.06 -0.15,-0.14l-0.9 -1.38c-0.05,-0.08 -0.07,-0.15 -0.05,-0.21 0.01,-0.06 0.06,-0.11 0.13,-0.16l0.6 -0.38c0.08,-0.06 0.15,-0.1 0.21,-0.13 0.07,-0.03 0.13,-0.05 0.19,-0.06 0.07,-0.01 0.14,-0.01 0.21,0.01 0.08,0.01 0.14,0.04 0.2,0.09 0.06,0.04 0.12,0.1 0.16,0.16 0.08,0.14 0.12,0.27 0.09,0.4 -0.02,0.13 -0.1,0.26 -0.23,0.39 0.08,-0.01 0.18,0 0.28,0.03 0.1,0.03 0.2,0.07 0.3,0.12 0.09,0.04 0.17,0.09 0.24,0.13 0.06,0.04 0.1,0.08 0.12,0.1 0.01,0.03 0.02,0.05 0.02,0.09 0,0.03 -0.01,0.06 -0.03,0.09 -0.01,0.03 -0.04,0.06 -0.07,0.08 -0.04,0.03 -0.08,0.04 -0.12,0.04 -0.04,0 -0.09,-0.01 -0.12,-0.03 -0.04,-0.01 -0.1,-0.04 -0.17,-0.08l-0.3 -0.14c-0.11,-0.06 -0.2,-0.1 -0.27,-0.12 -0.08,-0.02 -0.14,-0.02 -0.19,-0.01 -0.06,0.01 -0.12,0.04 -0.18,0.08zm-0.28 -0.9l-0.34 0.22 0.32 0.5 0.33 -0.21c0.09,-0.06 0.16,-0.12 0.21,-0.17 0.05,-0.05 0.07,-0.11 0.08,-0.16 0.01,-0.06 -0.01,-0.12 -0.05,-0.19 -0.03,-0.05 -0.07,-0.08 -0.12,-0.1 -0.05,-0.03 -0.1,-0.03 -0.16,-0.02 -0.06,0.01 -0.15,0.05 -0.27,0.13zm2.17 -1.36l-0.4 0.26 0.85 1.3c0.05,0.08 0.07,0.15 0.06,0.2 -0.01,0.06 -0.04,0.11 -0.1,0.14 -0.05,0.04 -0.11,0.05 -0.17,0.03 -0.05,-0.01 -0.11,-0.06 -0.15,-0.13l-0.85 -1.31 -0.4 0.26c-0.06,0.04 -0.12,0.06 -0.16,0.05 -0.05,-0.01 -0.09,-0.04 -0.12,-0.08 -0.03,-0.05 -0.04,-0.1 -0.02,-0.14 0.01,-0.05 0.05,-0.09 0.11,-0.13l1.16 -0.75c0.06,-0.04 0.12,-0.06 0.17,-0.05 0.05,0.01 0.08,0.03 0.11,0.08 0.03,0.04 0.04,0.09 0.03,0.14 -0.02,0.04 -0.05,0.09 -0.12,0.13zm-5.48 1.76l-1.59 0.95c-2.04,1.23 -4.7,0.56 -5.93,-1.48l0 0c-1.22,-2.03 -0.55,-4.7 1.48,-5.92l1.59 -0.95 3.03 -1.82c0.65,-0.39 1.5,-0.18 1.9,0.48l0 0c0.39,0.65 0.18,1.51 -0.48,1.9l-1.83 1.1c-0.73,0.44 -0.97,1.39 -0.53,2.12l0 0c0.43,0.73 1.39,0.97 2.12,0.53l1.83 -1.1c0.66,-0.39 1.51,-0.18 1.9,0.47l0 0c0.4,0.66 0.18,1.51 -0.47,1.9l-3.02 1.82zm2.09 -6.29l0 0c0.34,0.56 0.09,1.32 -0.54,1.71l-1.84 1.1c-0.63,0.38 -1.43,0.23 -1.76,-0.33l0 0c-0.34,-0.55 -0.09,-1.32 0.54,-1.7l1.84 -1.11c0.63,-0.38 1.42,-0.23 1.76,0.33z"/>
 </g>
</svg>
